<?xml version="1.0" ?><!-- Uploaded to: SVG Repo, www.svgrepo.com, Generator: SVG Repo Mixer Tools --><svg xmlns="http://www.w3.org/2000/svg" width="300.0px" height="300px" viewBox="0 0 400 400" fill="none">
<path d="M113.632 129.925C119.423 102.063 137.896 85.856 163.132 75.8782C262.439 36.6075 344.928 152.399 267.306 240.945C202.77 314.559 82.2425 246.571 104.766 168.637" stroke="#000000" stroke-opacity="0.9" stroke-width="16" stroke-linecap="round" stroke-linejoin="round"/>
<path d="M204.398 239.635C208.58 233.024 222.022 225.59 230.529 228.389C252.408 235.589 228.834 270.242 213.779 271.384C189.08 273.26 192.425 238.354 207.749 229.713" stroke="#000000" stroke-opacity="0.9" stroke-width="16" stroke-linecap="round" stroke-linejoin="round"/>
<path d="M214.913 274.652C214.913 277 214.254 283.714 212.937 294.794C202.462 300.402 197.224 301.661 197.224 298.57C197.224 294.794 192.543 287.212 192.543 274.652" stroke="#000000" stroke-opacity="0.9" stroke-width="16" stroke-linecap="round" stroke-linejoin="round"/>
<path d="M203.195 299.131C238.628 289.438 228.23 294.737 224.086 332.174" stroke="#000000" stroke-opacity="0.9" stroke-width="16" stroke-linecap="round" stroke-linejoin="round"/>
<path d="M199.844 304.478C209.51 335.063 186.958 329.408 161.652 332.174" stroke="#000000" stroke-opacity="0.9" stroke-width="16" stroke-linecap="round" stroke-linejoin="round"/>
<path d="M190.414 273.872C167.138 276.215 153.645 273.28 149.936 265.065" stroke="#000000" stroke-opacity="0.9" stroke-width="16" stroke-linecap="round" stroke-linejoin="round"/>
<path d="M214.912 273.534C228.829 274.326 257.521 266.216 257.521 255.478" stroke="#000000" stroke-opacity="0.9" stroke-width="16" stroke-linecap="round" stroke-linejoin="round"/>
</svg>
